<svg xmlns="http://www.w3.org/2000/svg" viewBox="0 0 345.85 47.29"><title>Asset 1</title><path d="M39.88,46.27h-18V44.09l1.38-.15a3.78,3.78,0,0,0,1.23-.3,1.9,1.9,0,0,0,.9-1,4.92,4.92,0,0,0,.27-1.85v-14a7.75,7.75,0,0,0-1.12-4.59,3.84,3.84,0,0,0-3.31-1.54,6.78,6.78,0,0,0-2.23.36,8.35,8.35,0,0,0-2,1,6.9,6.9,0,0,0-1.39,1.23q-.52.63-.88,1.11V40.5a4.47,4.47,0,0,0,.3,1.75,2.08,2.08,0,0,0,1,1.06,5.68,5.68,0,0,0,1.2.48,9.28,9.28,0,0,0,1.41.3v2.18H.42V44.09q.75-.06,1.51-.16a7.25,7.25,0,0,0,1.3-.28,2.2,2.2,0,0,0,1.32-1,3.87,3.87,0,0,0,.36-1.79V23.44a3.84,3.84,0,0,0-.48-1.82,4.27,4.27,0,0,0-1.26-1.46,5,5,0,0,0-1.36-.6A9.59,9.59,0,0,0,0,19.22V17l14.26-.78.45.45V21h.12l2-1.79a19.57,19.57,0,0,1,2.21-1.7A10.73,10.73,0,0,1,22,16.32a14,14,0,0,1,3.83-.51q4.87,0,7.31,2.77a10.7,10.7,0,0,1,2.44,7.34V40.56a4,4,0,0,0,.33,1.76,2.32,2.32,0,0,0,1.23,1,10.32,10.32,0,0,0,1.18.42,8.6,8.6,0,0,0,1.6.3Z" style="fill:#121212"/><path d="M76.82,45.65a22.48,22.48,0,0,1-3.1,1,14.64,14.64,0,0,1-3.79.48,10.39,10.39,0,0,1-5.4-1.09A5.46,5.46,0,0,1,62.17,43H62a19.61,19.61,0,0,1-2,1.73,11.24,11.24,0,0,1-2,1.23,15.27,15.27,0,0,1-2.71,1,15.65,15.65,0,0,1-3.64.33,9,9,0,0,1-5.93-2.05,6.73,6.73,0,0,1-2.46-5.43,9,9,0,0,1,.54-3.31A7.51,7.51,0,0,1,45.35,34a7.94,7.94,0,0,1,2.08-1.59A23.08,23.08,0,0,1,50,31.27q2.69-1,6.47-2.05A36.51,36.51,0,0,0,62,27.32V24.45q0-.75-.12-2a6.39,6.39,0,0,0-.51-2.06,4,4,0,0,0-1.32-1.61,3.9,3.9,0,0,0-2.36-.66,5.66,5.66,0,0,0-2.2.37,7.36,7.36,0,0,0-1.42.76,11.61,11.61,0,0,0,.51,1.82A7.28,7.28,0,0,1,55,23.47a4,4,0,0,1-.27,1.27A2.83,2.83,0,0,1,54,25.95a5.17,5.17,0,0,1-1.54.93,7.77,7.77,0,0,1-2.62.33A5.37,5.37,0,0,1,46,26a4.27,4.27,0,0,1,0-6.16,10.88,10.88,0,0,1,3.24-2.2,18.6,18.6,0,0,1,4.33-1.39,23.11,23.11,0,0,1,4.54-.49,38,38,0,0,1,5.32.34,12.57,12.57,0,0,1,4.36,1.42,7.58,7.58,0,0,1,2.94,3,10.75,10.75,0,0,1,1.09,5.19q0,3.38-.13,8t-.13,6.1A4.65,4.65,0,0,0,72,42a2.57,2.57,0,0,0,1.24,1.17,4.41,4.41,0,0,0,1.6.28q1.09,0,2,0ZM62,30.07q-1.68.57-3.33,1.3A13.31,13.31,0,0,0,56,32.92a5.81,5.81,0,0,0-1.74,2.14,7,7,0,0,0-.63,3.07,4.6,4.6,0,0,0,1.06,3.39,3.59,3.59,0,0,0,2.63,1A5,5,0,0,0,60,41.89a7.8,7.8,0,0,0,1.87-1.66Z" style="fill:#121212"/><path d="M93,47.29a19.12,19.12,0,0,1-5.66-.85A18.52,18.52,0,0,1,83,44.63l-.9,2H79.78l-.39-11.15h2.18a14.79,14.79,0,0,0,1.49,3,16.74,16.74,0,0,0,2.39,3,13.51,13.51,0,0,0,3.21,2.27,8.36,8.36,0,0,0,3.87.93,6.44,6.44,0,0,0,4.05-1.06,3.94,3.94,0,0,0,1.33-3.27,3.16,3.16,0,0,0-.6-2,5.13,5.13,0,0,0-1.64-1.35,15.2,15.2,0,0,0-2.56-1l-3.42-1a32.82,32.82,0,0,1-3.48-1.21,11.89,11.89,0,0,1-3-1.93,8.44,8.44,0,0,1-3-6.73,8.07,8.07,0,0,1,3.54-6.82,15.31,15.31,0,0,1,9.28-2.6,21.32,21.32,0,0,1,5,.55,25.29,25.29,0,0,1,3.84,1.21l.63-1.76h2.27L105.31,26h-2.09a12.37,12.37,0,0,0-3.59-5.37,8.1,8.1,0,0,0-5.47-2.26,6,6,0,0,0-3.62,1A3.1,3.1,0,0,0,89.23,22a3.45,3.45,0,0,0,1.92,3.29,25.75,25.75,0,0,0,5.39,1.91q5.34,1.38,7.82,3.75A8,8,0,0,1,106.83,37,8.73,8.73,0,0,1,103,44.6Q99.15,47.29,93,47.29Z" style="fill:#121212"/><path d="M149.37,46.27h-18V44.09l1.41-.15a3.44,3.44,0,0,0,1.2-.3,1.83,1.83,0,0,0,.88-1,5.19,5.19,0,0,0,.25-1.85v-14a7.61,7.61,0,0,0-1.15-4.6,3.86,3.86,0,0,0-3.27-1.52,6.74,6.74,0,0,0-2.23.36,8.31,8.31,0,0,0-2,1,6.89,6.89,0,0,0-1.39,1.23q-.52.63-.88,1.11V40.5a4.62,4.62,0,0,0,.27,1.75,2.21,2.21,0,0,0,1,1.06,4.94,4.94,0,0,0,1.18.48,9.71,9.71,0,0,0,1.42.3v2.18H109.85V44.09q.78-.06,1.52-.15a5.88,5.88,0,0,0,1.31-.3,2.27,2.27,0,0,0,1.31-1,3.91,3.91,0,0,0,.35-1.78V7.5a5.3,5.3,0,0,0-.45-2,3.48,3.48,0,0,0-1.25-1.61,5,5,0,0,0-1.73-.61,16.21,16.21,0,0,0-2-.28V.78L123.75,0l.45.48V21h.12l2-1.84a16.82,16.82,0,0,1,2.22-1.66,10.72,10.72,0,0,1,2.88-1.23,13.89,13.89,0,0,1,3.84-.51q4.84,0,7.27,2.78A10.72,10.72,0,0,1,145,25.92V40.56a4,4,0,0,0,.33,1.76,2.32,2.32,0,0,0,1.23,1,8.38,8.38,0,0,0,1.2.42,11.75,11.75,0,0,0,1.61.3Z" style="fill:#121212"/><path d="M181.65,18.62a7.43,7.43,0,0,0-2.56,1A5.75,5.75,0,0,0,177,22.18q-1.76,4-3.65,8.35t-3.92,9.13q-.6,1.37-1.27,3.26t-1.24,3.62h-2.33q-2.84-7-5.23-12.81t-5-11.85a4.46,4.46,0,0,0-1.93-2.14,7.78,7.78,0,0,0-2.68-1v-2h13.64v2.09a10.9,10.9,0,0,0-2.24.37q-1.34.34-1.34.94a1.87,1.87,0,0,0,.15.46q.15.37.3.85,1.22,3,3.46,8.51t3.64,8.81q1.08-2.57,2.71-6.39t3.51-8.54c.2-.54.39-1,.57-1.51a3.93,3.93,0,0,0,.27-1.42,1.17,1.17,0,0,0-.49-.91,5,5,0,0,0-1.18-.7,7.62,7.62,0,0,0-1.35-.45q-.66-.15-1.08-.21V16.8h11.28Z" style="fill:#121212"/><path d="M210.86,45.73q-1.4.51-2.47.82a8.5,8.5,0,0,1-2.41.31,5.87,5.87,0,0,1-3.72-1.09,5,5,0,0,1-1.78-3.18h-.18a14.58,14.58,0,0,1-4.17,3.29A11.69,11.69,0,0,1,190.77,47a7.6,7.6,0,0,1-5.46-2,7,7,0,0,1-2.14-5.32,9.06,9.06,0,0,1,.48-3,7.26,7.26,0,0,1,1.43-2.42,7.17,7.17,0,0,1,2-1.6,17.28,17.28,0,0,1,2.3-1.12q1.34-.51,5.46-1.88a40.77,40.77,0,0,0,5.54-2.15v-3A12.57,12.57,0,0,0,200.2,23a6.29,6.29,0,0,0-.7-2.09A6,6,0,0,0,197.81,19a5.06,5.06,0,0,0-3.09-.82,6.94,6.94,0,0,0-2.56.46,4.64,4.64,0,0,0-1.66,1,8.17,8.17,0,0,0,.28,1.76,9.14,9.14,0,0,1,.28,2.15,2.57,2.57,0,0,1-.94,1.91,3.71,3.71,0,0,1-2.62.87,2.45,2.45,0,0,1-2.2-1.06,4.19,4.19,0,0,1,.27-5A9.75,9.75,0,0,1,188.11,18a13.78,13.78,0,0,1,3.26-1.42,12.77,12.77,0,0,1,3.74-.58,24.49,24.49,0,0,1,4.38.34,8,8,0,0,1,3.39,1.48,6.9,6.9,0,0,1,2.32,3,12.83,12.83,0,0,1,.79,4.89q0,4.28-.09,7.58t-.09,7.22a3.66,3.66,0,0,0,.4,1.85,3.27,3.27,0,0,0,1.24,1.17,3,3,0,0,0,1.42.3q1,0,2,0ZM200.43,30q-2.54.75-4.45,1.47a18,18,0,0,0-3.56,1.8,8.1,8.1,0,0,0-2.36,2.41,6.14,6.14,0,0,0-.87,3.31,4.68,4.68,0,0,0,1.3,3.65,4.75,4.75,0,0,0,3.3,1.17,6.77,6.77,0,0,0,3.74-1,10.88,10.88,0,0,0,2.72-2.44Z" style="fill:#121212"/><path d="M228.08,46.27H213.85v-2l1.42-.12a5.45,5.45,0,0,0,1.27-.24,2.14,2.14,0,0,0,1.24-.94,3.35,3.35,0,0,0,.4-1.75V23.07a3.59,3.59,0,0,0-.43-1.75A3.86,3.86,0,0,0,216.54,20a5.54,5.54,0,0,0-1.64-.61,12.18,12.18,0,0,0-2-.31v-2l10.4-.66.42.42v24a3.4,3.4,0,0,0,.4,1.73,2.38,2.38,0,0,0,1.26,1,10,10,0,0,0,1.28.43,7.87,7.87,0,0,0,1.4.22ZM224.34,4.81a4.36,4.36,0,0,1-1.12,3,3.54,3.54,0,0,1-2.76,1.27,3.49,3.49,0,0,1-2.65-1.21,4,4,0,0,1-1.12-2.77,4.12,4.12,0,0,1,1.12-2.87A3.47,3.47,0,0,1,220.45,1a3.68,3.68,0,0,1,2.79,1.15A3.77,3.77,0,0,1,224.34,4.81Z" style="fill:#121212"/><path d="M245.53,46.27H231.15v-2l1.46-.13a7,7,0,0,0,1.29-.22,2.22,2.22,0,0,0,1.26-.94,3.28,3.28,0,0,0,.42-1.75V7.09a4.52,4.52,0,0,0-.46-2,3.91,3.91,0,0,0-1.21-1.48,6.14,6.14,0,0,0-2-.66,17.91,17.91,0,0,0-2.3-.36V.66L240.72,0l.42.45V40.89a3.39,3.39,0,0,0,.39,1.72,2.48,2.48,0,0,0,1.25,1,7,7,0,0,0,1.3.45,9.49,9.49,0,0,0,1.45.21Z" style="fill:#121212"/><path d="M259.49,42.84a3.84,3.84,0,0,1-1.21,2.85,4.11,4.11,0,0,1-5.77,0,3.84,3.84,0,0,1-1.21-2.85,4.1,4.1,0,0,1,8.19,0Z" style="fill:#121212"/><path d="M316.17,46.27H301.82v-2l1.39-.12a5.38,5.38,0,0,0,1.24-.24,2.15,2.15,0,0,0,1.24-.94,3.36,3.36,0,0,0,.4-1.75V26a7.26,7.26,0,0,0-1.42-4.8,4.45,4.45,0,0,0-3.54-1.69,8.28,8.28,0,0,0-2.75.45A8.68,8.68,0,0,0,296,21.25a7.55,7.55,0,0,0-1.45,1.42,13.15,13.15,0,0,0-.88,1.27V41a3.63,3.63,0,0,0,.36,1.72,2.33,2.33,0,0,0,1.23,1,9.84,9.84,0,0,0,1.24.4,8.91,8.91,0,0,0,1.45.19v2h-14v-2l1.33-.12a5.29,5.29,0,0,0,1.18-.24,2.15,2.15,0,0,0,1.24-.94,3.37,3.37,0,0,0,.4-1.75V26a7.24,7.24,0,0,0-1.42-4.8,4.46,4.46,0,0,0-3.55-1.69,8.09,8.09,0,0,0-2.76.46A9,9,0,0,0,278,21.28a7.11,7.11,0,0,0-1.47,1.48L275.6,24V40.89a3.22,3.22,0,0,0,.42,1.7,2.62,2.62,0,0,0,1.25,1,6.16,6.16,0,0,0,1.29.45,9.92,9.92,0,0,0,1.46.21v2H265.71v-2l1.42-.12a5.45,5.45,0,0,0,1.27-.24,2.14,2.14,0,0,0,1.24-.94,3.35,3.35,0,0,0,.4-1.75V23a3.42,3.42,0,0,0-.43-1.72,4,4,0,0,0-1.21-1.3,5.1,5.1,0,0,0-1.41-.58,9,9,0,0,0-1.73-.28v-2l9.86-.66.42.42v4.21h.21q.75-.75,1.82-1.76a16.3,16.3,0,0,1,2-1.64,9.51,9.51,0,0,1,2.62-1.2,11.59,11.59,0,0,1,3.39-.48,8,8,0,0,1,4.93,1.54,8.77,8.77,0,0,1,3,3.72l1.9-1.84a15.61,15.61,0,0,1,2.16-1.69,9.88,9.88,0,0,1,2.67-1.26,11.47,11.47,0,0,1,3.42-.48,7.51,7.51,0,0,1,5.91,2.45q2.18,2.45,2.18,7.53V41a3.63,3.63,0,0,0,.36,1.72,2.32,2.32,0,0,0,1.23,1,8.1,8.1,0,0,0,1.36.4,12.24,12.24,0,0,0,1.51.19Z" style="fill:#121212"/><path d="M345.85,39.34a15.1,15.1,0,0,1-5,5.62,12.5,12.5,0,0,1-7.14,2.09,14.52,14.52,0,0,1-6.23-1.26,12.23,12.23,0,0,1-4.41-3.41,14.48,14.48,0,0,1-2.59-5,21.23,21.23,0,0,1-.85-6.07,17.89,17.89,0,0,1,.91-5.63,15.91,15.91,0,0,1,2.68-5,12.94,12.94,0,0,1,4.23-3.42,12.2,12.2,0,0,1,5.67-1.3,13.63,13.63,0,0,1,5.53,1,9.85,9.85,0,0,1,3.74,2.78,11.11,11.11,0,0,1,2,3.95,17.28,17.28,0,0,1,.67,4.93v2H325.61a23.25,23.25,0,0,0,.55,5.27A12.65,12.65,0,0,0,327.92,40a8.33,8.33,0,0,0,3,2.74,9.41,9.41,0,0,0,4.48,1A8.26,8.26,0,0,0,340,42.54a12.33,12.33,0,0,0,3.72-4.49ZM339.24,28.1a24.32,24.32,0,0,0-.28-3.58,11,11,0,0,0-.91-3.19,6.08,6.08,0,0,0-1.88-2.23,5.13,5.13,0,0,0-3.08-.86,6.41,6.41,0,0,0-5.22,2.61,12.15,12.15,0,0,0-2.26,7.26Z" style="fill:#121212"/></svg>