<?xml version="1.0" encoding="utf-8"?>
<!-- Generator: Adobe Illustrator 21.1.0, SVG Export Plug-In . SVG Version: 6.00 Build 0)  -->
<svg version="1.1" id="Layer_1" xmlns="http://www.w3.org/2000/svg" xmlns:xlink="http://www.w3.org/1999/xlink" x="0px" y="0px"
	 viewBox="0 0 244.4 92.7" style="enable-background:new 0 0 244.4 92.7;" xml:space="preserve">
<style type="text/css">
	.st0{fill:#121212;}
</style>
<title>Asset 1</title>
<g>
	<path class="st0" d="M49.6,61.1c0,0-0.1,0-0.1,0c-0.4,0-0.8,0.3-1.2,0.6c-1.5,1.3-2.9,2.7-4.6,3.7c-1.7,1-3.8,1.5-5.6,0.8
		c-1.8-0.7-3-2.3-3.5-4.2c-0.5-1.8-0.3-3.8,0.1-5.6c1.2-5.4,4.5-10.3,9.1-13.4c1.4-0.9,3-1.4,4.6-1.2c4.5,0.6,5.4,5.4,5.8,9.3
		c0.3,2.9,0.5,5.8,0.8,8.7c0.1,1.4,0.3,2.9,2.1,3.4c0.9,0.2,1.9,0,2.7-0.6c4.9-3.2,9.1-8.1,10.2-13.9c0.3-1.9,0.3-4,1-5.8
		c0.8-2.4,2.6-4.4,4.9-5.5c0.9-0.4,2-0.5,2.9-0.1c4.3,1.9-2.9,7.7-3.7,10c-0.8,2.4-0.2,5.5,2.1,6.6c4.4-3.8,8.6-7.8,12.7-12
		c1.2-1.3,2.5-2.6,3.3-4.2c1.1-2.1,1.3-4.6,1.5-6.9c0.6-7.3,1.1-14.7,3.4-21.7c0.9-2.6,2-5.3,4.5-6.8c0.9-0.6,2-0.9,3.1-0.8
		c4.2,0.3,5.5,5.1,5.1,8.9c-0.8,9.3-6.8,17.3-9.7,26.1c-2,5.9-2.6,12.2-1.8,18.3c2.2-1.7,4.7-3.2,7.3-4.2c1.5-0.6,3.3-1.1,4.7,0.6
		c0.6,0.7,0.9,1.5,1,2.4c0.4,2.5-0.3,5.1-0.2,7.6c0.1,2.3,1.3,4.9,3.5,5.5c1.1,0.3,2.2,0.1,3.3-0.1c2.7-0.5,5.2-1.3,7-3.6
		c0.4-0.5,0.7-1,1.2-1.4c1.5-1.1,3.2,0.5,2.4,2c-0.3,0.7-1,1.2-1.6,1.6c-1.5,0.9-3.1,1.6-4.7,2.3c-2.1,0.9-4.3,1.5-6.5,1.4
		c-1.3,0-2.6-0.3-3.8-0.8c-4.5-2.1-5.4-7-5.4-11.7c0-1.2-1.3-1.9-2.4-1.4c-4.2,2.2-7.4,6.3-8.5,10.9c-0.4,1.5-0.8,3.3-2.3,3.7
		c-1,0.2-1.9-0.3-2.5-1c-1-1.4-0.9-3.1-0.7-4.8c0.7-7,1.4-14.1,2.1-21.1c-3.5,2.5-7.2,5-9.6,8.6c-2.4,3.6-3.5,8.4-1.5,12.2
		c0.4,0.8,1,1.5,0.6,2.6c-0.3,0.9-1.1,1.5-2,1.5c-1.8,0-2.8-2-3.4-3.7c-1.3-3.7-2.6-7.4-4-11.1c-3.2,4.6-7.1,8.7-11.4,12.3
		c-0.7,0.6-1.6,1.1-2.5,1.4c-4.3,1.5-6.5-1.8-8.5-4.6C50.4,61.6,50.1,61.2,49.6,61.1z M39.4,63.2c7.1,2.8,11.1-10.4,11.3-15
		c0.1-2.2-1.2-4.1-3.6-3.8c-2.1,0.3-4.1,2.1-5.3,3.7c-2.9,3.6-3.8,8.7-3.5,13.2C38.5,62.4,38.9,63,39.4,63.2z M101,25.9
		c0.1-0.4,0.3-0.8,0.6-1.2c2.8-4.3,5.7-9.9,4.4-15.2c-0.4-1.6-2.6-2-3.6-0.6c-0.6,1-0.8,2.7-1,3.8C100.6,16.9,100.4,21.6,101,25.9z"
		/>
	<path class="st0" d="M33.6,91c-1.3,0.7-2.9,0.6-4.2-0.2c-4.7-2.9-6.1-10.5-6.3-15.5c-0.2-6.2,1-12.3,1.5-18.5
		c0.2-2.9,0.5-5.8,0.4-8.8c-0.1-3.2-1.7-3.9-4.4-2.1c-4.2,2.9-7,6.7-7.3,12c-0.1,1.9,0.1,4.5-1.4,5.9c-3.7,3.5-3.7-6.4-3.8-7.9
		c-0.1-1.1,0.2-4-1-4.6c-4.8-2.1-5.8,6.3-5.2,6.6c-2.6-1.2-2.5-4.8-1-7.2c1.8-3.1,5.1-3.3,8.5-2.1c2.2,0.8,3-0.1,4.5-1.3
		c2.4-2.1,5.1-4.1,8-5.3c4.5-1.8,7.7,0.3,8.1,5.3c0.3,3.7-0.1,7.4-0.6,11.1c-0.9,7.9-2.4,15.7-0.9,23.8C29.3,85.9,30.8,88.6,33.6,91
		z"/>
	<g>
		<path class="st0" d="M160.3,55.8c-1.2,2.4-2.3,4.8-3.5,7.1c-0.9,1.8-2.1,5.9-3.9,6.9c-2.7,1.4-6.1-3.1-6.9-5.2
			c-1.9-5.5-2.6-11.9-3.5-17.7c-0.2-1.6-1.2-3.8,1.3-4.6c2.4-0.7,3.8,1,4.4,2.9c1.5,4.8,2,9.8,2.8,14.8c0.1,0.5,0.2,0.9,0.5,1.3
			c1.5,1.6,4.1-4.8,4.5-5.9c1.1-3,1.1-6.1-0.2-9.1c-1.6-3.8-1.5-8.1,1.5-11.6c0.8-0.9,2.5-1.6,3.7-1.4c6.5,1.1,2.6,9.9,1.8,13.2
			c-1.3,5.2-0.1,8,5.7,10.3c-0.3-0.1,1.9-4.9,2.2-5.4c1-2.2,2.4-4.3,4-6.2c1.4-1.7,3.2-3.6,5.3-4.3c2.4-0.7,3.8,1.4,4.4,3.4
			c1,3.2,0.3,7.4-2.2,9.8c-2,1.8-4.4,3.5-6.9,4.5c-2.2,0.8-2.7,2.8-2.3,5c0.3,1.5,1.4,5.3,2.9,5.9c0.4,0.1,0.8,0.1,1.2,0
			c2.6-0.5,5-2.2,6.6-4.2c0.9-1.1,1.6-2.4,2.3-3.7c0.6-1.3,1.1-2.6,2-3.7c0.5-0.6,2.2-0.7,3.4,1.3c1.4,2.4,2.1,6.4,5.6,6.2
			c2.7-0.2,4.4-1.6,4.9-1.9c0.5-0.3,1.3-0.5,1.3-0.2c0,2.9-4,4.4-6.3,4.6c-1.6,0.1-3.1-0.2-4.6-0.7c-0.9-0.3-1.7-1-2.5-1.4
			c-1.8-1-2.5-0.2-4,1c-1.9,1.5-3.9,2.9-6,4.2c-2.7,1.6-6.2,1.4-8.4-0.9c-2.6-2.7-1.9-7-4.4-9.8C165.2,58.3,162.6,57.1,160.3,55.8z
			 M179,46c-3.3,2.2-4.9,5.1-5,8.9c0,1,1,1.7,1.9,1.3c4-1.7,6.2-4.7,6.3-8.5C182.2,46,180.3,45.1,179,46z"/>
		<path class="st0" d="M244.4,69.8c-6.6,0-8.1-4.4-12.7-10.9c-0.8,1.3-1.6,2.6-2.4,3.8c-2.7,3.8-6,7.6-10.8,8.6
			c-4.6,0.9-8.1-0.9-10.5-4.9c-2.9-4.7-2.7-9.6-2.2-14.6c0.2-2.1,1.4-4,3.8-3.5c2.4,0.5,2.6,2.8,2,4.7c-1.5,4.3-0.8,8.3,1,12.3
			c1.6,3.6,3.2,4.4,6.9,3.3c3.4-1.1,6.2-4.7,8-7.7c2.2-3.5,4.6-6.8,3.8-10.9c-1.2-6.3-1.5-13.2,0.1-19.4c0.3-1.4,1.1-2.8,2.1-3.8
			c0.9-0.9,2.7-1.8,3.6-1.4c2.2,0.8,2.2,3.6,2,5.6c-1,7.8-4.1,15.2-2.8,23.3c0.4,2.4,1,4.7,2,6.9C239.3,63.2,241.5,66.8,244.4,69.8z
			"/>
		<path class="st0" d="M205.9,44.6c-1-1.1,0.3-2.8,1.1-3.7c1.4-1.5,3.5-1.6,5.2-0.4c1.8,1.3,1.3,3.2-0.4,4c-1.3,0.6-3.1,1-4.5,0.7
			C206.6,45.1,206.2,44.9,205.9,44.6z"/>
	</g>
</g>
</svg>
